<?xml version="1.0" encoding="utf-8"?>
<svg id="master-artboard" viewBox="0 0 118 50" version="1.1" xmlns="http://www.w3.org/2000/svg" x="0px" y="0px" style="enable-background:new 0 0 1400 980;" width="118px" height="50px"><defs><style id="ee-google-fonts">@import url(https://fonts.googleapis.com/css?family=Alfa+Slab+One:400);</style><path id="text-path-0" d="M 3.6076035499572754 45.91145324707031 A 100 15 0 0 1 113.9662857055664 45.91145324707031 A 100 15 0 0 1 3.6076035499572754 45.91145324707031 Z" style="fill: none; stroke: red; stroke-width: 2;"/></defs><path d="M 28.692773818969727 26.21062469482422 L 42.11219787597656 25.467172622680664 L 42.91428756713867 39.94497299194336 C 42.19346618652344 40.43225860595703 41.31455612182617 40.95834732055664 40.27755355834961 41.52324295043945 C 39.246829986572266 42.081111907958984 38.04342269897461 42.59513473510742 36.667327880859375 43.0653076171875 C 35.29122543334961 43.535484313964844 33.725059509277344 43.94941711425781 31.968822479248047 44.30711364746094 C 30.212587356567383 44.66481018066406 28.232826232910156 44.90468978881836 26.029537200927734 45.026756286621094 C 22.74790382385254 45.208560943603516 19.763097763061523 44.963294982910156 17.075124740600586 44.29095458984375 C 14.380495071411133 43.61898422241211 12.051675796508789 42.4393310546875 10.088665962219238 40.75200271606445 C 8.125657081604004 39.06467056274414 6.562671661376953 36.82436752319336 5.399710178375244 34.03108596801758 C 4.236748695373535 31.237808227539062 3.541685104370117 27.790979385375977 3.314519166946411 23.69059944152832 C 3.0891973972320557 19.623504638671875 3.399627685546875 16.127647399902344 4.245810508728027 13.203025817871094 C 5.091993808746338 10.278407096862793 6.387404441833496 7.869729995727539 8.13204288482666 5.976990222930908 C 9.88333797454834 4.083885192871094 12.057613372802734 2.654756546020508 14.654868125915527 1.6896083354949951 C 17.258779525756836 0.7240913510322571 20.181583404541016 0.15153594315052032 23.423276901245117 -0.028057843446731567 C 25.659847259521484 -0.15196651220321655 27.6606502532959 -0.13261672854423523 29.42568016052246 0.02999933995306492 C 31.190711975097656 0.1926114857196808 32.78303146362305 0.43156367540359497 34.2026481628418 0.7468519806861877 C 35.62226104736328 1.0621401071548462 36.878414154052734 1.4398994445800781 37.971107482910156 1.8801298141479492 C 39.06416702270508 2.327014207839966 40.03242492675781 2.7507717609405518 40.875877380371094 3.151395082473755 L 41.650306701660156 17.129959106445312 L 28.23088264465332 17.873411178588867 L 28.007957458496094 13.849581718444824 C 27.92756462097168 12.398473739624023 27.553117752075195 11.364270210266113 26.884613037109375 10.746968269348145 C 26.209453582763672 10.13003921508789 25.23950958251953 9.856606483459473 23.974781036376953 9.926673889160156 C 22.710054397583008 9.99674129486084 21.7762508392334 10.375643730163574 21.173372268676758 11.06337833404541 C 20.577146530151367 11.750746726989746 20.319232940673828 12.819984436035156 20.399625778198242 14.271092414855957 L 21.335025787353516 31.155200958251953 C 21.415786743164062 32.61296463012695 21.79041862487793 33.65049743652344 22.458925247192383 34.26779556274414 C 23.134084701538086 34.884727478027344 24.104026794433594 35.15815734863281 25.368755340576172 35.08808898925781 C 26.633481979370117 35.01802444458008 27.56728744506836 34.639122009277344 28.170166015625 33.951385498046875 C 28.766389846801758 33.26401901245117 29.024120330810547 32.19145584106445 28.943357467651367 30.73369026184082 L 28.692773818969727 26.21062469482422 ZM 46.11463165283203 -0.11993706971406937 L 68.51456451416016 -0.17477846145629883 L 68.53706359863281 9.015192985534668 L 65.17707061767578 9.023418426513672 L 65.23876953125 34.22334289550781 L 68.59876251220703 34.215118408203125 L 68.62123107910156 43.39509201049805 L 46.2213020324707 43.44993209838867 L 46.19882583618164 34.26995849609375 L 49.558815002441406 34.26173400878906 L 49.49711990356445 9.061807632446289 L 46.13713073730469 9.07003402709961 L 46.11463165283203 -0.11993706971406937 ZM 73.32916259765625 -0.3373052179813385 L 99.55307006835938 1.0390961170196533 C 104.14009094238281 1.2798527479171753 107.70619201660156 2.401644229888916 110.25138092041016 4.40446662902832 C 112.80323028564453 6.407642364501953 113.98428344726562 9.216739654541016 113.79454040527344 12.831762313842773 C 113.70054626464844 14.62263298034668 113.28396606445312 16.136211395263672 112.5448226928711 17.372501373291016 C 111.80602264404297 18.602134704589844 110.93246459960938 19.601055145263672 109.92414855957031 20.369260787963867 C 108.90917205810547 21.137117385864258 107.86052703857422 21.719619750976562 106.77822875976562 22.116771697998047 C 105.68961334228516 22.506916046142578 104.74867248535156 22.75460433959961 103.95539855957031 22.859834671020508 L 103.9260482788086 23.419065475463867 C 104.74773406982422 23.535627365112305 105.74708557128906 23.764989852905273 106.92410278320312 24.107152938842773 C 108.10111999511719 24.449316024780273 109.20967102050781 25.014863967895508 110.24974822998047 25.803796768188477 C 111.29682922363281 26.5864200592041 112.16946411132812 27.640275955200195 112.86763000488281 28.96535873413086 C 113.55915069580078 30.290090560913086 113.85004425048828 31.997684478759766 113.74032592773438 34.088138580322266 C 113.63095092773438 36.171939849853516 113.1124496459961 37.910484313964844 112.184814453125 39.30377960205078 C 111.25051879882812 40.69672393798828 110.03096008300781 41.80098342895508 108.5261459350586 42.6165657043457 C 107.02798461914062 43.4324951171875 105.30992126464844 43.98653793334961 103.37194061279297 44.27869415283203 C 101.42730712890625 44.57050323486328 99.39311981201172 44.660675048828125 97.26937103271484 44.5492057800293 L 71.04547119140625 43.17280578613281 L 71.5266342163086 34.00542068481445 L 74.88201904296875 34.18153381347656 L 76.2028579711914 9.016173362731934 L 72.84748077392578 8.84006118774414 L 73.32916259765625 -0.3373052179813385 M 94.39598846435547 19.16370391845703 C 95.4745101928711 19.220312118530273 96.30139923095703 18.983327865600586 96.87666320800781 18.452749252319336 C 97.44527435302734 17.921823501586914 97.76277923583984 17.023897171020508 97.82917022705078 15.758971214294434 L 97.93504333496094 13.74174976348877 C 98.00143432617188 12.476824760437012 97.77967834472656 11.550594329833984 97.269775390625 10.963058471679688 C 96.75321197509766 10.375177383422852 95.95567321777344 10.052929878234863 94.87715148925781 9.996321678161621 L 91.8613052368164 9.838030815124512 L 91.38014221191406 19.005413055419922 L 94.39598846435547 19.16370391845703 M 93.9457778930664 35.182125091552734 C 95.03095245361328 35.23908233642578 95.85784149169922 35.002098083496094 96.42645263671875 34.47117233276367 C 96.99505615234375 33.940242767333984 97.31273651123047 33.03899002075195 97.37947845458984 31.767406463623047 L 97.50841522216797 29.310789108276367 C 97.57515716552734 28.039203643798828 97.35357666015625 27.10964584350586 96.84366607666016 26.522113800048828 C 96.3337631225586 25.93457794189453 95.53622436523438 25.612333297729492 94.4510498046875 25.555376052856445 L 91.04573822021484 25.376644134521484 L 90.54046630859375 35.00339126586914 L 93.9457778930664 35.182125091552734 Z" transform="matrix(1, 0, 0, 1, -1, 3)" style="fill: rgb(255, 255, 255); white-space: pre; color: rgb(51, 51, 51);"/></svg>